<svg xmlns="http://www.w3.org/2000/svg" version="1.1" xmlns:xlink="http://www.w3.org/1999/xlink" xmlns:svgjs="http://svgjs.dev/svgjs" width="1000" height="750" viewBox="0 0 1000 750"><rect width="1000" height="750" fill="#ffffff"></rect><g transform="matrix(0.834,0,0,0.834,82.49455365626943,294.08244612878764)"><svg viewBox="0 0 396 77" data-background-color="#ffffff" preserveAspectRatio="xMidYMid meet" height="194" width="1000" xmlns="http://www.w3.org/2000/svg" xmlns:xlink="http://www.w3.org/1999/xlink"><g id="tight-bounds" transform="matrix(1,0,0,1,0.23999610565624607,0.009305842439545131)"><svg viewBox="0 0 395.52 76.98138052643338" height="76.98138052643338" width="395.52"><g><svg viewBox="0 0 516.6174888559171 100.55098982662777" height="76.98138052643338" width="395.52"><g transform="matrix(1,0,0,1,0,28.517142699101736)"><svg viewBox="0 0 395.52 43.5167044284243" height="43.5167044284243" width="395.52"><g id="textblocktransform"><svg viewBox="0 0 395.52 43.5167044284243" height="43.5167044284243" width="395.52" id="textblock"><g><svg viewBox="0 0 395.52 43.5167044284243" height="43.5167044284243" width="395.52"><g transform="matrix(1,0,0,1,0,0)"><svg width="395.52" viewBox="2 -31.549999237060547 291.2799987792969 32.04999923706055" height="43.5167044284243" data-palette-color="#ffd300"><g class="undefined-text-0" data-fill-palette-color="primary" id="text-0"><path d="M27.45-9.1L27.45-9.1Q27.45 0 16.15 0L16.15 0 2 0 2-31.05 15.95-31.05Q21.55-31.05 24.23-29.05 26.9-27.05 26.9-22.9 26.9-18.75 23.4-16.5L23.4-16.5 23.4-16.3Q27.45-14.45 27.45-9.1ZM14.1-6.2Q15.45-6.2 15.9-6.78 16.35-7.35 16.35-9.2 16.35-11.05 15.88-11.83 15.4-12.6 14.1-12.6L14.1-12.6 12.65-12.6 12.65-6.2 14.1-6.2ZM14.15-18.1Q15.05-18.1 15.48-18.7 15.9-19.3 15.9-20.78 15.9-22.25 15.48-22.9 15.05-23.55 14.1-23.55L14.1-23.55 12.65-23.55 12.65-18.1 14.15-18.1ZM29.15-15.73Q29.15-24.05 32.47-27.8 35.8-31.55 43.42-31.55 51.05-31.55 54.32-27.85 57.6-24.15 57.6-15.83 57.6-7.5 54.22-3.5 50.85 0.5 43.32 0.5 35.8 0.5 32.47-3.45 29.15-7.4 29.15-15.73ZM46.2-21.68Q45.55-22.95 43.4-22.95 41.25-22.95 40.65-21.7 40.05-20.45 40.05-16.35L40.05-16.35 40.05-14.15Q40.05-9.95 40.7-8.7 41.35-7.45 43.55-7.45 45.75-7.45 46.3-8.65 46.85-9.85 46.85-14L46.85-14 46.85-16.3Q46.85-20.4 46.2-21.68ZM86.05-9.1L86.05-9.1Q86.05 0 74.75 0L74.75 0 60.6 0 60.6-31.05 74.55-31.05Q80.15-31.05 82.82-29.05 85.5-27.05 85.5-22.9 85.5-18.75 82-16.5L82-16.5 82-16.3Q86.05-14.45 86.05-9.1ZM72.7-6.2Q74.05-6.2 74.5-6.78 74.95-7.35 74.95-9.2 74.95-11.05 74.47-11.83 74-12.6 72.7-12.6L72.7-12.6 71.25-12.6 71.25-6.2 72.7-6.2ZM72.75-18.1Q73.65-18.1 74.07-18.7 74.5-19.3 74.5-20.78 74.5-22.25 74.07-22.9 73.65-23.55 72.7-23.55L72.7-23.55 71.25-23.55 71.25-18.1 72.75-18.1ZM108.44-31.05L114.89 0 104.39 0 103.39-4.8 97.84-4.8 96.79 0 86.74 0 93.19-31.05 108.44-31.05ZM98.59-11.25L102.64-11.25 100.74-21.65 100.54-21.65 98.59-11.25ZM133.44-17.05L133.44-8.95 116.49-8.95 116.49-17.05 133.44-17.05ZM162.49-9.1L162.49-9.1Q162.49 0 151.19 0L151.19 0 137.04 0 137.04-31.05 150.99-31.05Q156.59-31.05 159.26-29.05 161.94-27.05 161.94-22.9 161.94-18.75 158.44-16.5L158.44-16.5 158.44-16.3Q162.49-14.45 162.49-9.1ZM149.14-6.2Q150.49-6.2 150.94-6.78 151.39-7.35 151.39-9.2 151.39-11.05 150.91-11.83 150.44-12.6 149.14-12.6L149.14-12.6 147.69-12.6 147.69-6.2 149.14-6.2ZM149.19-18.1Q150.09-18.1 150.51-18.7 150.94-19.3 150.94-20.78 150.94-22.25 150.51-22.9 150.09-23.55 149.14-23.55L149.14-23.55 147.69-23.55 147.69-18.1 149.19-18.1ZM176.19-31.05L176.19-11Q176.19-8.3 178.61-8.3 181.04-8.3 181.04-11.05L181.04-11.05 181.04-31.05 191.74-31.05 191.74-10.4Q191.74-4.9 188.29-2.2 184.84 0.5 178.39 0.5L178.39 0.5Q165.29 0.5 165.29-10.3L165.29-10.3 165.29-31.05 176.19-31.05ZM221.28-9.1L221.28-9.1Q221.28 0 209.98 0L209.98 0 195.83 0 195.83-31.05 209.78-31.05Q215.38-31.05 218.06-29.05 220.73-27.05 220.73-22.9 220.73-18.75 217.23-16.5L217.23-16.5 217.23-16.3Q221.28-14.45 221.28-9.1ZM207.93-6.2Q209.28-6.2 209.73-6.78 210.18-7.35 210.18-9.2 210.18-11.05 209.71-11.83 209.23-12.6 207.93-12.6L207.93-12.6 206.48-12.6 206.48-6.2 207.93-6.2ZM207.98-18.1Q208.88-18.1 209.31-18.7 209.73-19.3 209.73-20.78 209.73-22.25 209.31-22.9 208.88-23.55 207.93-23.55L207.93-23.55 206.48-23.55 206.48-18.1 207.98-18.1ZM249.43-9.1L249.43-9.1Q249.43 0 238.13 0L238.13 0 223.98 0 223.98-31.05 237.93-31.05Q243.53-31.05 246.21-29.05 248.88-27.05 248.88-22.9 248.88-18.75 245.38-16.5L245.38-16.5 245.38-16.3Q249.43-14.45 249.43-9.1ZM236.08-6.2Q237.43-6.2 237.88-6.78 238.33-7.35 238.33-9.2 238.33-11.05 237.86-11.83 237.38-12.6 236.08-12.6L236.08-12.6 234.63-12.6 234.63-6.2 236.08-6.2ZM236.13-18.1Q237.03-18.1 237.46-18.7 237.88-19.3 237.88-20.78 237.88-22.25 237.46-22.9 237.03-23.55 236.08-23.55L236.08-23.55 234.63-23.55 234.63-18.1 236.13-18.1ZM271.48-8.05L270.78 0 252.13 0 252.13-31.05 262.83-31.05 262.83-8.05 271.48-8.05ZM293.28-7.6L292.58 0 272.78 0 272.78-31.05 293.28-31.05 292.58-22.8 283.48-22.8 283.48-19.05 291.43-19.05 291.43-11.85 283.48-11.85 283.48-7.6 293.28-7.6Z" fill="#ffd300" data-fill-palette-color="primary"></path></g></svg></g></svg></g></svg></g></svg></g><g transform="matrix(1,0,0,1,416.0664990292894,0)"><svg viewBox="0 0 100.55098982662777 100.55098982662777" height="100.55098982662777" width="100.55098982662777"><g><svg></svg></g><g id="icon-0"><svg viewBox="0 0 100.55098982662777 100.55098982662777" height="100.55098982662777" width="100.55098982662777"><g><path d="M0 50.275c0-27.766 22.509-50.275 50.275-50.275 27.766 0 50.275 22.509 50.276 50.275 0 27.766-22.509 50.275-50.276 50.276-27.766 0-50.275-22.509-50.275-50.276zM50.275 96.627c25.599 0 46.351-20.752 46.352-46.351 0-25.599-20.752-46.351-46.352-46.352-25.599 0-46.351 20.752-46.351 46.352 0 25.599 20.752 46.351 46.351 46.351z" data-fill-palette-color="accent" fill="#2ee89e" stroke="transparent"></path></g><g transform="matrix(1,0,0,1,25.689763660424944,26.14226178164376)"><svg viewBox="0 0 49.17146250577788 48.26646626334025" height="48.26646626334025" width="49.17146250577788"><g><svg xmlns="http://www.w3.org/2000/svg" data-name="Layer 1 copy 2" viewBox="10 10 81.5 80" x="0" y="0" height="48.26646626334025" width="49.17146250577788" class="icon-s-0" data-fill-palette-color="accent" id="s-0"><path d="M78.5 33A11.5 11.5 0 1 1 90 21.5 11.513 11.513 0 0 1 78.5 33Zm0-19A7.5 7.5 0 1 0 86 21.5 7.508 7.508 0 0 0 78.5 14Z" fill="#2ee89e" data-fill-palette-color="accent"></path><path d="M35.5 90A6.5 6.5 0 1 1 42 83.5 6.508 6.508 0 0 1 35.5 90Zm0-9A2.5 2.5 0 1 0 38 83.5 2.502 2.502 0 0 0 35.5 81Z" fill="#2ee89e" data-fill-palette-color="accent"></path><path d="M65.5 90a26 26 0 1 1 26-26A26.029 26.029 0 0 1 65.5 90Zm0-48a22 22 0 1 0 22 22A22.025 22.025 0 0 0 65.5 42Z" fill="#2ee89e" data-fill-palette-color="accent"></path><path d="M33 42A16 16 0 1 1 49 26 16.018 16.018 0 0 1 33 42Zm0-28A12 12 0 1 0 45 26 12.013 12.013 0 0 0 33 14Z" fill="#2ee89e" data-fill-palette-color="accent"></path><path d="M51.878 65.352a2 2 0 0 1-2-2A14.99 14.99 0 0 1 64.852 48.378a2 2 0 0 1 0 4A10.986 10.986 0 0 0 53.878 63.352 2 2 0 0 1 51.878 65.352Z" fill="#2ee89e" data-fill-palette-color="accent"></path><path d="M26.538 28a2 2 0 0 1-2-2A8.471 8.471 0 0 1 33 17.538a2 2 0 0 1 0 4A4.467 4.467 0 0 0 28.538 26 2 2 0 0 1 26.538 28Z" fill="#2ee89e" data-fill-palette-color="accent"></path><path d="M75 24a2 2 0 0 1-2-2 6.007 6.007 0 0 1 6-6 2 2 0 0 1 0 4 2.003 2.003 0 0 0-2 2A2 2 0 0 1 75 24Z" fill="#2ee89e" data-fill-palette-color="accent"></path><path d="M21.5 74A11.5 11.5 0 1 1 33 62.5 11.513 11.513 0 0 1 21.5 74Zm0-19A7.5 7.5 0 1 0 29 62.5 7.508 7.508 0 0 0 21.5 55Z" fill="#2ee89e" data-fill-palette-color="accent"></path><path d="M18 65a2 2 0 0 1-2-2 6.007 6.007 0 0 1 6-6 2 2 0 0 1 0 4 2.003 2.003 0 0 0-2 2A2 2 0 0 1 18 65Z" fill="#2ee89e" data-fill-palette-color="accent"></path></svg></g></svg></g></svg></g></svg></g></svg></g><defs></defs></svg><rect width="395.52" height="76.98138052643338" fill="none" stroke="none" visibility="hidden"></rect></g></svg></g></svg>